<svg width="95" height="80" viewBox="0 0 95 80" xmlns="http://www.w3.org/2000/svg">
    <g id="kastryulya" clip-path="url(#clip0_22_259)">
        <path id="Vector"
            d="M20.9681 15.2396C20.8823 15.6395 20.962 16.0548 21.1827 16.3962C21.4033 16.7377 21.7527 16.9776 22.1511 17.0638L83.7008 30.15C83.8081 30.1715 83.9153 30.1838 84.0195 30.1838C84.7275 30.1838 85.3649 29.6885 85.5181 28.9656C86.0851 26.2739 83.1829 23.5269 76.6399 20.5706C72.4966 18.6972 67.2469 16.9161 61.4548 15.4026C63.9402 13.9845 65.6196 11.3051 65.6196 8.2381C65.6196 3.69453 61.939 0 57.4125 0C52.8861 0 49.2055 3.69453 49.2055 8.2381C49.2055 10.0285 49.7786 11.6835 50.747 13.037C44.1274 11.8342 37.8756 11.179 32.8067 11.179C25.418 11.179 21.5443 12.5048 20.9681 15.2396Z" />
        <path id="Vector_2"
            d="M81.3074 72.8293C79.8149 74.6966 77.164 76.9268 73.0145 76.9268H29.7973C25.6479 76.9268 22.997 74.6996 21.5045 72.8293C18.7218 69.347 17.5787 64.1328 18.5931 59.5493C20.1775 52.3879 20.4778 41.4458 20.533 37.4159H82.2819C82.3371 41.4458 82.6374 52.3879 84.2218 59.5493C85.2362 64.1328 84.0931 69.347 81.3074 72.8293ZM91.4298 41.7995H85.463C85.3343 38.3696 85.3282 35.9394 85.3282 35.8778C85.3282 35.0288 84.6417 34.3397 83.7959 34.3397H19.0068C18.161 34.3397 17.4745 35.0288 17.4745 35.8778C17.4745 35.9363 17.4715 38.3696 17.3427 41.7995H11.3759C9.40846 41.7995 7.80566 43.4084 7.80566 45.3833C7.80566 47.3583 9.40846 48.9671 11.3759 48.9671C12.2218 48.9671 12.9082 48.278 12.9082 47.429C12.9082 46.58 12.2218 45.8909 11.3759 45.8909C11.0971 45.8909 10.8703 45.6633 10.8703 45.3833C10.8703 45.1034 11.0971 44.8758 11.3759 44.8758H17.2018C16.9566 49.4409 16.4847 54.8581 15.5959 58.8818C14.3701 64.4251 15.7154 70.5037 19.111 74.7519C21.814 78.1358 25.6111 80 29.7943 80H73.0115C77.1977 80 80.9917 78.1358 83.6947 74.7519C87.0903 70.5037 88.4357 64.422 87.2098 58.8818C86.318 54.8581 85.8492 49.4409 85.604 44.8758H91.4298C91.7087 44.8758 91.9355 45.1034 91.9355 45.3833C91.9355 45.6633 91.7087 45.8909 91.4298 45.8909C90.584 45.8909 89.8975 46.58 89.8975 47.429C89.8975 48.278 90.584 48.9671 91.4298 48.9671C93.3973 48.9671 95.0001 47.3583 95.0001 45.3833C95.0001 43.4084 93.4004 41.7995 91.4298 41.7995Z" />
        <path id="Vector_3"
            d="M3.94109 33.7615C4.19851 33.9306 4.48965 34.0137 4.77773 34.0137C5.27726 34.0137 5.7676 33.7676 6.0618 33.3185C6.52456 32.6079 6.32842 31.6542 5.62049 31.1897C3.00944 29.4732 2.277 25.9479 3.98705 23.3269C4.364 22.7517 4.83289 22.2533 5.38758 21.8473C5.73695 21.592 5.96067 21.2044 6.0097 20.7737C6.05873 20.343 5.92389 19.9154 5.63888 19.5893C3.9748 17.6821 3.77866 14.8643 5.16387 12.7386C6.54907 10.613 9.19997 9.66855 11.6088 10.4376C12.0194 10.5699 12.4638 10.5207 12.8377 10.3053C13.2115 10.09 13.4751 9.727 13.5701 9.30556C13.7172 8.63495 13.9838 8.00125 14.3608 7.426C16.0708 4.80506 19.5829 4.06985 22.1939 5.78637C22.9019 6.25088 23.8519 6.054 24.3146 5.3434C24.7774 4.63279 24.5813 3.67917 23.8703 3.21466C19.8464 0.569117 14.4313 1.70424 11.7957 5.74331C11.4984 6.19859 11.2471 6.67848 11.0387 7.17375C7.76573 6.74308 4.44981 8.21658 2.59878 11.0559C0.747756 13.8953 0.726304 17.5375 2.42717 20.3738C2.05635 20.7645 1.71924 21.1859 1.42197 21.6412C-1.21053 25.6772 -0.0827546 31.1159 3.94109 33.7615Z" />
    </g>
    <defs>
        <clipPath id="clip0_22_259">
            <rect width="95" height="80" />
        </clipPath>
    </defs>
</svg>