<svg width="78" height="80" viewBox="0 0 78 80" xmlns="http://www.w3.org/2000/svg">
    <g id="multyvarka" clip-path="url(#clip0_22_266)">
        <path id="Vector"
            d="M30.4569 43.6791H45.041C47.2632 43.6791 49.3733 42.8134 50.9606 41.2138C52.5292 39.633 53.4068 37.5064 53.4068 35.2481V26.3467C53.4068 25.5939 52.7906 24.9729 52.0623 24.9729H23.4729C22.726 24.9729 22.1284 25.5939 22.1284 26.3467V35.2481C22.1284 37.4876 22.9874 39.6142 24.5747 41.2138C26.1433 42.7946 28.2534 43.6791 30.4942 43.6791H30.4569ZM50.6431 35.3987C50.5871 36.9607 49.9522 38.4474 48.8318 39.5953C47.6553 40.7809 46.1054 41.4208 44.4435 41.4208H31.0544C29.4112 41.4208 27.8612 40.7621 26.6661 39.5953C25.4897 38.4097 24.8548 36.8478 24.8548 35.1729V27.2312H50.6431V35.3987Z" />
        <path id="Vector_2"
            d="M25.6016 62.7806C28.4026 62.7806 30.6808 60.4846 30.6808 57.6618C30.6808 54.8389 28.4026 52.5242 25.6016 52.5242C22.8005 52.5242 20.5037 54.8201 20.5037 57.6618C20.5037 60.5035 22.7819 62.7806 25.6016 62.7806ZM22.9499 57.6241C22.9499 56.1374 24.145 54.9518 25.6016 54.9518C27.0581 54.9518 28.2532 56.1563 28.2532 57.6241C28.2532 59.092 27.0581 60.3153 25.6016 60.3153C24.145 60.3153 22.9499 59.1109 22.9499 57.6241Z" />
        <path id="Vector_3"
            d="M75.5911 15.5446L75.4604 15.5069V15.3752C75.2923 14.6413 75.0496 13.8885 74.6948 13.1357C74.1719 12.0442 73.3689 10.9339 72.3419 9.88003C70.3811 7.90402 67.6174 6.15385 64.1255 4.66714C60.7642 3.21807 56.768 2.0701 52.2303 1.24206C47.6739 0.41402 42.8188 0 37.7769 0C32.735 0 27.8798 0.41402 23.3234 1.24206C18.8978 2.03246 14.9016 3.18043 11.4283 4.66714C7.91764 6.17267 5.15394 7.92284 3.21187 9.88003C2.16615 10.9339 1.38185 12.0254 0.85899 13.1357C0.280105 14.3402 0 15.5446 0 16.8243V67.2218L0.0933684 67.6735C0.205411 68.5956 0.448169 69.4989 0.821642 70.3458C1.36318 71.6255 2.1288 72.7547 3.06248 73.6956C4.03352 74.6742 5.15394 75.427 6.3864 75.9539C7.24539 76.3303 8.14173 76.5749 9.03807 76.6878L9.24348 76.7255V77.083C9.24348 78.7015 10.5506 80.0376 12.1566 80.0376H17.7774C19.3833 80.0376 20.6904 78.7203 20.6904 77.083V76.7819H54.9567V77.083C54.9567 78.7015 56.2638 80.0376 57.8698 80.0376H63.4905C65.0965 80.0376 66.4223 78.7203 66.4223 77.083V76.7067H66.609C67.5427 76.5373 68.4017 76.2926 69.186 75.9727C70.4558 75.427 71.5763 74.6554 72.5099 73.7144C73.481 72.7358 74.2279 71.6067 74.7508 70.3646C75.1243 69.4989 75.367 68.6145 75.479 67.6923L75.5164 67.4853H75.5911V27.3442L75.7592 27.2877C77.1037 26.7984 78 25.4811 78 24.032V18.8379C78 17.3324 77.029 16.0151 75.5911 15.5446ZM73.0328 67.4665L72.9955 67.73C72.6407 69.5554 71.6696 71.2303 70.2318 72.4347C68.7752 73.658 66.9452 74.3166 65.0778 74.3166H10.4386C8.57122 74.3166 6.7412 73.6392 5.28465 72.4347C3.84678 71.2303 2.87575 69.5554 2.52095 67.7111L2.46493 67.4477H73.0141L73.0328 67.4665ZM16.2461 41.1762C17.0491 43.0769 18.1882 44.7706 19.6074 46.2009C21.0639 47.6688 22.7446 48.8168 24.5932 49.5883C26.5353 50.4164 28.5894 50.8304 30.6995 50.8304H44.8916C47.0017 50.8304 49.0558 50.4164 50.9978 49.5883C52.8839 48.7791 54.5645 47.6311 55.9837 46.2009C57.4403 44.733 58.5794 43.0393 59.345 41.1762C60.1666 39.219 60.5774 37.1489 60.5774 35.0224V20.2494H73.1822V65.0012H2.40891V20.2494H15.0136V35.0224C15.0136 37.1489 15.4245 39.219 16.2461 41.1762ZM58.1125 35.0412C58.1125 42.3994 52.1743 48.4027 44.8729 48.4027H30.6809C23.3795 48.4027 17.4412 42.4183 17.4412 35.0412V20.2682H58.1312V35.0412H58.1125ZM73.1635 16.8243V17.8029H2.40891V16.8243C2.40891 15.0741 3.2679 13.3239 4.92985 11.6302C6.68518 9.86121 9.18746 8.28041 12.3807 6.94425C19.1219 4.06493 28.1412 2.48412 37.7769 2.48412C47.4125 2.48412 56.3759 4.06493 63.1731 6.94425C66.3663 8.29922 68.8686 9.88003 70.6239 11.6302C72.3045 13.3239 73.1448 15.0741 73.1448 16.8243H73.1635Z" />
        <path id="Vector_4"
            d="M37.7582 62.7806C40.5593 62.7806 42.8561 60.4846 42.8561 57.6618C42.8561 54.8389 40.5779 52.5242 37.7582 52.5242C34.9385 52.5242 32.679 54.8201 32.679 57.6618C32.679 60.5035 34.9571 62.7806 37.7582 62.7806ZM35.1065 57.6241C35.1065 56.1374 36.3016 54.9518 37.7582 54.9518C39.2147 54.9518 40.4285 56.1563 40.4285 57.6241C40.4285 59.092 39.2334 60.3153 37.7582 60.3153C36.283 60.3153 35.1065 59.1109 35.1065 57.6241Z" />
        <path id="Vector_5"
            d="M49.952 62.7806C52.7531 62.7806 55.0313 60.4846 55.0313 57.643C55.0126 54.8201 52.7344 52.5242 49.952 52.5242C47.1697 52.5242 44.8728 54.8201 44.8728 57.6618C44.8728 60.5035 47.151 62.7806 49.952 62.7806ZM47.3004 57.6241C47.3004 56.1374 48.4955 54.9518 49.952 54.9518C51.4086 54.9518 52.6037 56.1563 52.6037 57.6241C52.6037 59.092 51.4086 60.3153 49.952 60.3153C48.4955 60.3153 47.3004 59.1109 47.3004 57.6241Z" />
    </g>
    <defs>
        <clipPath id="clip0_22_266">
            <rect width="78" height="80" />
        </clipPath>
    </defs>
</svg>