<svg width="45" height="84" viewBox="0 0 45 84" xmlns="http://www.w3.org/2000/svg">
    <g clip-path="url(#clip0_22_256)">
        <path
            d="M0 0V82.5025H3.10769C3.10769 82.5025 3.07692 82.5951 3.07692 82.6414C3.07692 83.12 3.49231 84 4 84H10.2615C10.7692 84 11.1846 83.12 11.1846 82.6414C11.1846 82.5951 11.1692 82.5488 11.1538 82.5025H33.8462C33.8462 82.5025 33.8154 82.5951 33.8154 82.6414C33.8154 83.12 34.2308 84 34.7385 84H41C41.5077 84 41.9231 83.12 41.9231 82.6414C41.9231 82.5951 41.9231 82.5488 41.8923 82.5025H45V0H0ZM42.5692 80.1559H2.4V49.9276H42.5692V80.1559Z" />
        <path
            d="M22.4924 67.1414C20.3539 67.1414 18.6001 68.8859 18.6001 71.0473C18.6001 73.2086 20.3386 74.9532 22.4924 74.9532C24.6463 74.9532 26.3847 73.2086 26.3847 71.0473C26.3847 68.8859 24.6309 67.1414 22.4924 67.1414Z" />
    </g>
    <defs>
        <clipPath id="clip0_22_256">
            <rect width="45" height="84" />
        </clipPath>
    </defs>
</svg>