<svg width="93" height="80" viewBox="0 0 93 80" xmlns="http://www.w3.org/2000/svg">
    <g id="yogurtnitsa" clip-path="url(#clip0_22_263)">
        <path id="Vector"
            d="M88.4464 44.9744H88.1545V34.0015C88.1545 19.6928 76.5368 8.01756 62.2336 8.01756H55.228V0.702268C55.228 0.321873 54.9069 0 54.5274 0H38.4436C38.0641 0 37.7722 0.321873 37.7722 0.702268V8.07608H30.7666C16.4926 8.04682 4.87488 19.6928 4.87488 34.0307V45.0037H4.46622C3.24023 45.0037 2.10181 45.5011 1.2553 46.3789C0.379591 47.3153 -0.0582625 48.5443 0.0293081 49.8903C0.146069 52.2019 2.21857 54.0746 4.61217 54.0746H4.87488V65.6328C4.87488 73.5918 11.3259 80.0293 19.2365 80.0293H73.7346C81.6743 80.0293 88.0962 73.5625 88.0962 65.6328V54.0746H88.534C89.76 54.0746 90.8984 53.5772 91.7449 52.6993C92.6206 51.763 93.0585 50.534 92.9709 49.188C92.8834 46.8764 90.84 45.0037 88.4464 45.0037V44.9744ZM85.7901 54.0454V65.6035C85.7901 72.2165 80.3899 77.6006 73.793 77.6006H19.2948C12.6979 77.6006 7.29767 72.2165 7.29767 65.6035V54.0454H85.7901ZM40.1075 2.39941L52.8636 2.34089V8.07608H40.1367V2.39941H40.1075ZM76.6244 24.6964H64.744C62.2628 24.6964 60.2779 26.7154 60.2779 29.2026V45.0037H56.8918V29.2026C56.8918 26.7154 54.8777 24.6964 52.3965 24.6964H40.5161C38.035 24.6964 36.0208 26.7154 36.0208 29.2026V45.0037H32.664V29.2026C32.664 26.7154 30.6498 24.6964 28.1687 24.6964H16.2883C13.8071 24.6964 11.793 26.7154 11.793 29.2026V45.0037H7.18091V34.0307C7.2101 21.0388 17.7478 10.4462 30.7374 10.4462H62.1753C75.1357 10.4462 85.6734 21.0095 85.6734 34.0307V45.0037H81.0613V29.2026C81.0613 26.7154 79.0472 24.6964 76.566 24.6964H76.6244ZM14.2449 29.2026C14.2449 28.0614 15.2082 27.0958 16.3758 27.0958H28.2562C29.3947 27.0958 30.3871 28.0614 30.3871 29.2026V32.1287H14.2741V29.2026H14.2449ZM38.4436 29.2026C38.4436 28.0614 39.4069 27.0958 40.5745 27.0958H52.4549C53.6225 27.0958 54.5858 28.0614 54.5858 29.2026V32.1287H38.4728V29.2026H38.4436ZM62.6423 29.2026C62.6423 28.0614 63.6056 27.0958 64.7732 27.0958H76.6536C77.8212 27.0958 78.7845 28.0614 78.7845 29.2026V32.1287H62.6715V29.2026H62.6423ZM30.3287 34.5282V45.0037H14.2449V34.5282H30.3287ZM54.5274 34.5282V45.0037H38.4436V34.5282H54.5274ZM78.7261 34.5282V45.0037H62.6423V34.5282H78.7261ZM90.5189 49.5977C90.5481 50.1244 90.373 50.6511 90.0227 51.0315C89.6432 51.4411 89.0886 51.6752 88.534 51.6752H4.49541C3.29861 51.6752 2.4229 50.7388 2.4229 49.4806C2.4229 48.3394 3.35699 47.4031 4.49541 47.4031H88.4756C89.6724 47.4031 90.5481 48.3394 90.5481 49.6269L90.5189 49.5977Z" />
        <path id="Vector_2"
            d="M33.3645 67.5054H59.6941C60.0735 67.5054 60.3654 67.1836 60.3654 66.8324V58.0248C60.3654 57.6444 60.0443 57.3518 59.6941 57.3518H33.3645C32.985 57.3518 32.6931 57.6737 32.6931 58.0248V66.8324C32.6931 67.2128 33.0142 67.5054 33.3645 67.5054ZM35.0575 65.1938V59.7512L58.001 59.6927V65.1645L35.0575 65.1938Z"
        />
    </g>
    <defs>
        <clipPath id="clip0_22_263">
            <rect width="93" height="80" />
        </clipPath>
    </defs>
</svg>