<svg style="display: none;" aria-hidden="true" xmlns="http://www.w3.org/2000/svg" xmlns:xlink="http://www.w3.org/1999/xlink"><symbol viewBox="0 0 95 80" id="svg-kastryulya"><g clip-path="url(#aclip0_22_259)"><path d="M20.9681 15.2396C20.8823 15.6395 20.962 16.0548 21.1827 16.3962 21.4033 16.7377 21.7527 16.9776 22.1511 17.0638L83.7008 30.15C83.8081 30.1715 83.9153 30.1838 84.0195 30.1838 84.7275 30.1838 85.3649 29.6885 85.5181 28.9656 86.0851 26.2739 83.1829 23.5269 76.6399 20.5706 72.4966 18.6972 67.2469 16.9161 61.4548 15.4026 63.9402 13.9845 65.6196 11.3051 65.6196 8.2381 65.6196 3.69453 61.939 0 57.4125 0 52.8861 0 49.2055 3.69453 49.2055 8.2381 49.2055 10.0285 49.7786 11.6835 50.747 13.037 44.1274 11.8342 37.8756 11.179 32.8067 11.179 25.418 11.179 21.5443 12.5048 20.9681 15.2396zM81.3074 72.8293C79.8149 74.6966 77.164 76.9268 73.0145 76.9268H29.7973C25.6479 76.9268 22.997 74.6996 21.5045 72.8293 18.7218 69.347 17.5787 64.1328 18.5931 59.5493 20.1775 52.3879 20.4778 41.4458 20.533 37.4159H82.2819C82.3371 41.4458 82.6374 52.3879 84.2218 59.5493 85.2362 64.1328 84.0931 69.347 81.3074 72.8293zM91.4298 41.7995H85.463C85.3343 38.3696 85.3282 35.9394 85.3282 35.8778 85.3282 35.0288 84.6417 34.3397 83.7959 34.3397H19.0068C18.161 34.3397 17.4745 35.0288 17.4745 35.8778 17.4745 35.9363 17.4715 38.3696 17.3427 41.7995H11.3759C9.40846 41.7995 7.80566 43.4084 7.80566 45.3833 7.80566 47.3583 9.40846 48.9671 11.3759 48.9671 12.2218 48.9671 12.9082 48.278 12.9082 47.429 12.9082 46.58 12.2218 45.8909 11.3759 45.8909 11.0971 45.8909 10.8703 45.6633 10.8703 45.3833 10.8703 45.1034 11.0971 44.8758 11.3759 44.8758H17.2018C16.9566 49.4409 16.4847 54.8581 15.5959 58.8818 14.3701 64.4251 15.7154 70.5037 19.111 74.7519 21.814 78.1358 25.6111 80 29.7943 80H73.0115C77.1977 80 80.9917 78.1358 83.6947 74.7519 87.0903 70.5037 88.4357 64.422 87.2098 58.8818 86.318 54.8581 85.8492 49.4409 85.604 44.8758H91.4298C91.7087 44.8758 91.9355 45.1034 91.9355 45.3833 91.9355 45.6633 91.7087 45.8909 91.4298 45.8909 90.584 45.8909 89.8975 46.58 89.8975 47.429 89.8975 48.278 90.584 48.9671 91.4298 48.9671 93.3973 48.9671 95.0001 47.3583 95.0001 45.3833 95.0001 43.4084 93.4004 41.7995 91.4298 41.7995zM3.94109 33.7615C4.19851 33.9306 4.48965 34.0137 4.77773 34.0137 5.27726 34.0137 5.7676 33.7676 6.0618 33.3185 6.52456 32.6079 6.32842 31.6542 5.62049 31.1897 3.00944 29.4732 2.277 25.9479 3.98705 23.3269 4.364 22.7517 4.83289 22.2533 5.38758 21.8473 5.73695 21.592 5.96067 21.2044 6.0097 20.7737 6.05873 20.343 5.92389 19.9154 5.63888 19.5893 3.9748 17.6821 3.77866 14.8643 5.16387 12.7386 6.54907 10.613 9.19997 9.66855 11.6088 10.4376 12.0194 10.5699 12.4638 10.5207 12.8377 10.3053 13.2115 10.09 13.4751 9.727 13.5701 9.30556 13.7172 8.63495 13.9838 8.00125 14.3608 7.426 16.0708 4.80506 19.5829 4.06985 22.1939 5.78637 22.9019 6.25088 23.8519 6.054 24.3146 5.3434 24.7774 4.63279 24.5813 3.67917 23.8703 3.21466 19.8464.569117 14.4313 1.70424 11.7957 5.74331 11.4984 6.19859 11.2471 6.67848 11.0387 7.17375 7.76573 6.74308 4.44981 8.21658 2.59878 11.0559.747756 13.8953.726304 17.5375 2.42717 20.3738 2.05635 20.7645 1.71924 21.1859 1.42197 21.6412-1.21053 25.6772-.0827546 31.1159 3.94109 33.7615z"/></g><defs><clipPath id="aclip0_22_259"><path d="M0 0H95V80H0z"/></clipPath></defs></symbol><symbol viewBox="0 0 78 80" id="svg-multyvarka"><g clip-path="url(#bclip0_22_266)"><path d="M30.4569 43.6791H45.041C47.2632 43.6791 49.3733 42.8134 50.9606 41.2138 52.5292 39.633 53.4068 37.5064 53.4068 35.2481V26.3467C53.4068 25.5939 52.7906 24.9729 52.0623 24.9729H23.4729C22.726 24.9729 22.1284 25.5939 22.1284 26.3467V35.2481C22.1284 37.4876 22.9874 39.6142 24.5747 41.2138 26.1433 42.7946 28.2534 43.6791 30.4942 43.6791H30.4569zM50.6431 35.3987C50.5871 36.9607 49.9522 38.4474 48.8318 39.5953 47.6553 40.7809 46.1054 41.4208 44.4435 41.4208H31.0544C29.4112 41.4208 27.8612 40.7621 26.6661 39.5953 25.4897 38.4097 24.8548 36.8478 24.8548 35.1729V27.2312H50.6431V35.3987zM25.6016 62.7806C28.4026 62.7806 30.6808 60.4846 30.6808 57.6618 30.6808 54.8389 28.4026 52.5242 25.6016 52.5242 22.8005 52.5242 20.5037 54.8201 20.5037 57.6618 20.5037 60.5035 22.7819 62.7806 25.6016 62.7806zM22.9499 57.6241C22.9499 56.1374 24.145 54.9518 25.6016 54.9518 27.0581 54.9518 28.2532 56.1563 28.2532 57.6241 28.2532 59.092 27.0581 60.3153 25.6016 60.3153 24.145 60.3153 22.9499 59.1109 22.9499 57.6241z"/><path d="M75.5911 15.5446L75.4604 15.5069V15.3752C75.2923 14.6413 75.0496 13.8885 74.6948 13.1357C74.1719 12.0442 73.3689 10.9339 72.3419 9.88003C70.3811 7.90402 67.6174 6.15385 64.1255 4.66714C60.7642 3.21807 56.768 2.0701 52.2303 1.24206C47.6739 0.41402 42.8188 0 37.7769 0C32.735 0 27.8798 0.41402 23.3234 1.24206C18.8978 2.03246 14.9016 3.18043 11.4283 4.66714C7.91764 6.17267 5.15394 7.92284 3.21187 9.88003C2.16615 10.9339 1.38185 12.0254 0.85899 13.1357C0.280105 14.3402 0 15.5446 0 16.8243V67.2218L0.0933684 67.6735C0.205411 68.5956 0.448169 69.4989 0.821642 70.3458C1.36318 71.6255 2.1288 72.7547 3.06248 73.6956C4.03352 74.6742 5.15394 75.427 6.3864 75.9539C7.24539 76.3303 8.14173 76.5749 9.03807 76.6878L9.24348 76.7255V77.083C9.24348 78.7015 10.5506 80.0376 12.1566 80.0376H17.7774C19.3833 80.0376 20.6904 78.7203 20.6904 77.083V76.7819H54.9567V77.083C54.9567 78.7015 56.2638 80.0376 57.8698 80.0376H63.4905C65.0965 80.0376 66.4223 78.7203 66.4223 77.083V76.7067H66.609C67.5427 76.5373 68.4017 76.2926 69.186 75.9727C70.4558 75.427 71.5763 74.6554 72.5099 73.7144C73.481 72.7358 74.2279 71.6067 74.7508 70.3646C75.1243 69.4989 75.367 68.6145 75.479 67.6923L75.5164 67.4853H75.5911V27.3442L75.7592 27.2877C77.1037 26.7984 78 25.4811 78 24.032V18.8379C78 17.3324 77.029 16.0151 75.5911 15.5446ZM73.0328 67.4665L72.9955 67.73C72.6407 69.5554 71.6696 71.2303 70.2318 72.4347C68.7752 73.658 66.9452 74.3166 65.0778 74.3166H10.4386C8.57122 74.3166 6.7412 73.6392 5.28465 72.4347C3.84678 71.2303 2.87575 69.5554 2.52095 67.7111L2.46493 67.4477H73.0141L73.0328 67.4665ZM16.2461 41.1762C17.0491 43.0769 18.1882 44.7706 19.6074 46.2009C21.0639 47.6688 22.7446 48.8168 24.5932 49.5883C26.5353 50.4164 28.5894 50.8304 30.6995 50.8304H44.8916C47.0017 50.8304 49.0558 50.4164 50.9978 49.5883C52.8839 48.7791 54.5645 47.6311 55.9837 46.2009C57.4403 44.733 58.5794 43.0393 59.345 41.1762C60.1666 39.219 60.5774 37.1489 60.5774 35.0224V20.2494H73.1822V65.0012H2.40891V20.2494H15.0136V35.0224C15.0136 37.1489 15.4245 39.219 16.2461 41.1762ZM58.1125 35.0412C58.1125 42.3994 52.1743 48.4027 44.8729 48.4027H30.6809C23.3795 48.4027 17.4412 42.4183 17.4412 35.0412V20.2682H58.1312V35.0412H58.1125ZM73.1635 16.8243V17.8029H2.40891V16.8243C2.40891 15.0741 3.2679 13.3239 4.92985 11.6302C6.68518 9.86121 9.18746 8.28041 12.3807 6.94425C19.1219 4.06493 28.1412 2.48412 37.7769 2.48412C47.4125 2.48412 56.3759 4.06493 63.1731 6.94425C66.3663 8.29922 68.8686 9.88003 70.6239 11.6302C72.3045 13.3239 73.1448 15.0741 73.1448 16.8243H73.1635Z"/><path d="M37.7582 62.7806C40.5593 62.7806 42.8561 60.4846 42.8561 57.6618 42.8561 54.8389 40.5779 52.5242 37.7582 52.5242 34.9385 52.5242 32.679 54.8201 32.679 57.6618 32.679 60.5035 34.9571 62.7806 37.7582 62.7806zM35.1065 57.6241C35.1065 56.1374 36.3016 54.9518 37.7582 54.9518 39.2147 54.9518 40.4285 56.1563 40.4285 57.6241 40.4285 59.092 39.2334 60.3153 37.7582 60.3153 36.283 60.3153 35.1065 59.1109 35.1065 57.6241zM49.952 62.7806C52.7531 62.7806 55.0313 60.4846 55.0313 57.643 55.0126 54.8201 52.7344 52.5242 49.952 52.5242 47.1697 52.5242 44.8728 54.8201 44.8728 57.6618 44.8728 60.5035 47.151 62.7806 49.952 62.7806zM47.3004 57.6241C47.3004 56.1374 48.4955 54.9518 49.952 54.9518 51.4086 54.9518 52.6037 56.1563 52.6037 57.6241 52.6037 59.092 51.4086 60.3153 49.952 60.3153 48.4955 60.3153 47.3004 59.1109 47.3004 57.6241z"/></g><defs><clipPath id="bclip0_22_266"><path d="M0 0H78V80H0z"/></clipPath></defs></symbol><symbol viewBox="0 0 45 84" id="svg-yogobox"><g clip-path="url(#cclip0_22_256)"><path d="M0 0V82.5025H3.10769C3.10769 82.5025 3.07692 82.5951 3.07692 82.6414C3.07692 83.12 3.49231 84 4 84H10.2615C10.7692 84 11.1846 83.12 11.1846 82.6414C11.1846 82.5951 11.1692 82.5488 11.1538 82.5025H33.8462C33.8462 82.5025 33.8154 82.5951 33.8154 82.6414C33.8154 83.12 34.2308 84 34.7385 84H41C41.5077 84 41.9231 83.12 41.9231 82.6414C41.9231 82.5951 41.9231 82.5488 41.8923 82.5025H45V0H0ZM42.5692 80.1559H2.4V49.9276H42.5692V80.1559Z"/><path d="M22.4924 67.1414C20.3539 67.1414 18.6001 68.8859 18.6001 71.0473C18.6001 73.2086 20.3386 74.9532 22.4924 74.9532C24.6463 74.9532 26.3847 73.2086 26.3847 71.0473C26.3847 68.8859 24.6309 67.1414 22.4924 67.1414Z"/></g><defs><clipPath id="cclip0_22_256"><path d="M0 0H45V84H0z"/></clipPath></defs></symbol><symbol viewBox="0 0 93 80" id="svg-yogurtnitsa"><g clip-path="url(#dclip0_22_263)"><path d="M88.4464 44.9744H88.1545V34.0015C88.1545 19.6928 76.5368 8.01756 62.2336 8.01756H55.228V0.702268C55.228 0.321873 54.9069 0 54.5274 0H38.4436C38.0641 0 37.7722 0.321873 37.7722 0.702268V8.07608H30.7666C16.4926 8.04682 4.87488 19.6928 4.87488 34.0307V45.0037H4.46622C3.24023 45.0037 2.10181 45.5011 1.2553 46.3789C0.379591 47.3153 -0.0582625 48.5443 0.0293081 49.8903C0.146069 52.2019 2.21857 54.0746 4.61217 54.0746H4.87488V65.6328C4.87488 73.5918 11.3259 80.0293 19.2365 80.0293H73.7346C81.6743 80.0293 88.0962 73.5625 88.0962 65.6328V54.0746H88.534C89.76 54.0746 90.8984 53.5772 91.7449 52.6993C92.6206 51.763 93.0585 50.534 92.9709 49.188C92.8834 46.8764 90.84 45.0037 88.4464 45.0037V44.9744ZM85.7901 54.0454V65.6035C85.7901 72.2165 80.3899 77.6006 73.793 77.6006H19.2948C12.6979 77.6006 7.29767 72.2165 7.29767 65.6035V54.0454H85.7901ZM40.1075 2.39941L52.8636 2.34089V8.07608H40.1367V2.39941H40.1075ZM76.6244 24.6964H64.744C62.2628 24.6964 60.2779 26.7154 60.2779 29.2026V45.0037H56.8918V29.2026C56.8918 26.7154 54.8777 24.6964 52.3965 24.6964H40.5161C38.035 24.6964 36.0208 26.7154 36.0208 29.2026V45.0037H32.664V29.2026C32.664 26.7154 30.6498 24.6964 28.1687 24.6964H16.2883C13.8071 24.6964 11.793 26.7154 11.793 29.2026V45.0037H7.18091V34.0307C7.2101 21.0388 17.7478 10.4462 30.7374 10.4462H62.1753C75.1357 10.4462 85.6734 21.0095 85.6734 34.0307V45.0037H81.0613V29.2026C81.0613 26.7154 79.0472 24.6964 76.566 24.6964H76.6244ZM14.2449 29.2026C14.2449 28.0614 15.2082 27.0958 16.3758 27.0958H28.2562C29.3947 27.0958 30.3871 28.0614 30.3871 29.2026V32.1287H14.2741V29.2026H14.2449ZM38.4436 29.2026C38.4436 28.0614 39.4069 27.0958 40.5745 27.0958H52.4549C53.6225 27.0958 54.5858 28.0614 54.5858 29.2026V32.1287H38.4728V29.2026H38.4436ZM62.6423 29.2026C62.6423 28.0614 63.6056 27.0958 64.7732 27.0958H76.6536C77.8212 27.0958 78.7845 28.0614 78.7845 29.2026V32.1287H62.6715V29.2026H62.6423ZM30.3287 34.5282V45.0037H14.2449V34.5282H30.3287ZM54.5274 34.5282V45.0037H38.4436V34.5282H54.5274ZM78.7261 34.5282V45.0037H62.6423V34.5282H78.7261ZM90.5189 49.5977C90.5481 50.1244 90.373 50.6511 90.0227 51.0315C89.6432 51.4411 89.0886 51.6752 88.534 51.6752H4.49541C3.29861 51.6752 2.4229 50.7388 2.4229 49.4806C2.4229 48.3394 3.35699 47.4031 4.49541 47.4031H88.4756C89.6724 47.4031 90.5481 48.3394 90.5481 49.6269L90.5189 49.5977Z"/><path d="M33.3645 67.5054H59.6941C60.0735 67.5054 60.3654 67.1836 60.3654 66.8324V58.0248C60.3654 57.6444 60.0443 57.3518 59.6941 57.3518H33.3645C32.985 57.3518 32.6931 57.6737 32.6931 58.0248V66.8324C32.6931 67.2128 33.0142 67.5054 33.3645 67.5054ZM35.0575 65.1938V59.7512L58.001 59.6927V65.1645L35.0575 65.1938Z"/></g><defs><clipPath id="dclip0_22_263"><path d="M0 0H93V80H0z"/></clipPath></defs></symbol></svg>